<?xml version="1.0" encoding="UTF-8"?>
<svg id="Trazado" xmlns="http://www.w3.org/2000/svg" viewBox="0 0 1920 1080">
  <defs>
    <style>
      .cls-1 {
        fill: #2196f3;
      }

      .cls-2 {
        fill: #23232a;
      }
    </style>
  </defs>
  <g>
    <polygon class="cls-2" points="35.21 301.42 34.79 711.56 108.93 711.56 108.93 527.27 201.93 659.27 215.21 659.7 307.36 524.7 307.36 711.56 380.21 711.56 380.21 297.13 207.5 480.34 35.21 301.42"/>
    <polygon class="cls-2" points="450.71 711.56 519.29 711.56 519.71 407 450.71 407 450.71 711.56"/>
    <ellipse class="cls-2" cx="485" cy="333.71" rx="39" ry="47.14"/>
    <polygon class="cls-2" points="590.64 301.42 590.21 711.56 664.36 711.56 664.36 527.27 757.36 659.27 770.64 659.7 862.79 524.7 862.79 711.56 935.64 711.56 935.64 297.13 762.93 480.34 590.64 301.42"/>
    <path class="cls-2" d="m1227.76,448.96c-25.84-32.72-62.65-51.48-100.98-51.48s-75.14,18.76-100.98,51.48c-23.64,29.94-36.67,69.1-36.67,110.28s13.02,80.34,36.67,110.28c25.84,32.72,62.65,51.48,100.98,51.48s75.14-18.76,100.98-51.48c23.64-29.94,36.67-69.1,36.67-110.28s-13.02-80.34-36.67-110.28Zm-100.98,178.04c-20.64,0-43.64-27.83-43.64-67.76s23-67.76,43.64-67.76,43.64,27.83,43.64,67.76-23,67.76-43.64,67.76Z"/>
  </g>
  <ellipse class="cls-1" cx="1839.55" cy="853.34" rx="41.62" ry="48.52"/>
  <path class="cls-1" d="m1438.41,411.98c-23.44,0-42.52-21.96-42.52-48.95s19.07-48.95,42.52-48.95,42.52,21.96,42.52,48.95-19.07,48.95-42.52,48.95Zm0-74.91c-10.58,0-19.52,11.89-19.52,25.95s8.94,25.95,19.52,25.95,19.52-11.89,19.52-25.95-8.94-25.95-19.52-25.95Z"/>
  <path class="cls-1" d="m1557.84,435.17c-23.44,0-42.52-21.96-42.52-48.95s19.07-48.95,42.52-48.95,42.52,21.96,42.52,48.95-19.07,48.95-42.52,48.95Zm0-74.91c-10.58,0-19.52,11.89-19.52,25.95s8.94,25.95,19.52,25.95,19.52-11.88,19.52-25.95-8.94-25.95-19.52-25.95Z"/>
  <path class="cls-1" d="m1683.5,471.11c-23.44,0-42.52-21.96-42.52-48.95s19.07-48.95,42.52-48.95,42.52,21.96,42.52,48.95-19.07,48.95-42.52,48.95Zm0-74.91c-10.58,0-19.52,11.89-19.52,25.95s8.94,25.95,19.52,25.95,19.52-11.89,19.52-25.95-8.94-25.95-19.52-25.95Z"/>
  <path class="cls-1" d="m1674.18,360.26c-23.44,0-42.52-21.96-42.52-48.95s19.07-48.95,42.52-48.95,42.52,21.96,42.52,48.95-19.07,48.95-42.52,48.95Zm0-74.91c-10.58,0-19.52,11.89-19.52,25.95s8.94,25.95,19.52,25.95,19.52-11.89,19.52-25.95-8.94-25.95-19.52-25.95Z"/>
  <path class="cls-1" d="m1491.29,597.17c-23.44,0-42.52-21.96-42.52-48.95s19.07-48.95,42.52-48.95,42.52,21.96,42.52,48.95-19.07,48.95-42.52,48.95Zm0-74.91c-10.58,0-19.52,11.88-19.52,25.95s8.94,25.95,19.52,25.95,19.52-11.88,19.52-25.95-8.94-25.95-19.52-25.95Z"/>
  <path class="cls-1" d="m1532,742.02c-23.44,0-42.52-21.96-42.52-48.95s19.07-48.95,42.52-48.95,42.52,21.96,42.52,48.95-19.07,48.95-42.52,48.95Zm0-74.91c-10.58,0-19.52,11.88-19.52,25.95s8.94,25.95,19.52,25.95,19.52-11.88,19.52-25.95-8.94-25.95-19.52-25.95Z"/>
  <path class="cls-1" d="m1567.38,840.93c-40.87,0-80.46-9.78-117.68-29.08-35.52-18.42-67.32-44.67-94.53-78.02-55.11-67.56-85.46-157.06-85.46-252.04s30.35-184.48,85.46-252.04c27.21-33.35,59.02-59.61,94.53-78.02,37.22-19.3,76.81-29.08,117.68-29.08s80.46,9.78,117.68,29.08c35.52,18.42,67.32,44.67,94.53,78.02,55.11,67.55,85.46,157.06,85.46,252.04s-30.35,184.48-85.46,252.04c-27.21,33.35-59.02,59.6-94.53,78.02-37.22,19.3-76.81,29.08-117.68,29.08Zm0-667.29c-136.01,0-246.67,138.23-246.67,308.14s110.66,308.14,246.67,308.14,246.67-138.23,246.67-308.14-110.66-308.14-246.67-308.14Z"/>
  <polygon class="cls-1" points="1554.71 734 1603.14 788.86 1619 784.57 1567.38 719.43 1554.71 734"/>
  <polygon class="cls-1" points="1513.14 589.46 1554.93 641.54 1616 641.54 1698.61 744.39 1713.07 732.5 1626.29 624.5 1564.89 626.75 1525.04 578.54 1513.14 589.46"/>
  <polygon class="cls-1" points="1460.96 404.32 1724 723.5 1736.21 709.36 1472.75 391.79 1460.96 404.32"/>
  <polygon class="cls-1" points="1580 427.57 1691 562.14 1691 638.43 1744.57 697.14 1754.43 683.86 1708.57 631.14 1706.86 552.71 1593.29 414.29 1580 427.57"/>
  <polygon class="cls-1" points="1706 463.14 1803.71 581 1809.29 557.64 1718.86 449 1706 463.14"/>
  <polygon class="cls-1" points="1709.86 337.14 1774.14 414.29 1774.14 629.86 1783.57 639.71 1772.86 655.62 1757.64 641.86 1757.64 422.16 1697.43 352.57 1709.86 337.14"/>
  <polygon class="cls-1" points="1805.05 826.19 1751.96 762.07 1766.11 748.89 1817.61 812.11 1805.05 826.19"/>
</svg>