<?xml version="1.0" encoding="UTF-8"?>
<svg id="Trazado" xmlns="http://www.w3.org/2000/svg" viewBox="0 0 1953.14 1080">
  <defs>
    <style>
      .cls-1 {
        fill: #fafafa;
      }

      .cls-2 {
        fill: #2196f3;
      }
    </style>
  </defs>
  <g>
    <polygon class="cls-1" points="68.36 301.42 67.93 711.56 142.07 711.56 142.07 527.27 235.07 659.27 248.36 659.7 340.5 524.7 340.5 711.56 413.36 711.56 413.36 297.13 240.64 480.34 68.36 301.42"/>
    <polygon class="cls-1" points="483.86 711.56 552.43 711.56 552.86 407 483.86 407 483.86 711.56"/>
    <ellipse class="cls-1" cx="518.14" cy="333.71" rx="39" ry="47.14"/>
    <polygon class="cls-1" points="623.79 301.42 623.36 711.56 697.5 711.56 697.5 527.27 790.5 659.27 803.79 659.7 895.93 524.7 895.93 711.56 968.79 711.56 968.79 297.13 796.07 480.34 623.79 301.42"/>
    <path class="cls-1" d="m1260.91,448.96c-25.84-32.72-62.65-51.48-100.98-51.48s-75.14,18.76-100.98,51.48c-23.64,29.94-36.67,69.1-36.67,110.28s13.02,80.34,36.67,110.28c25.84,32.72,62.65,51.48,100.98,51.48s75.14-18.76,100.98-51.48c23.64-29.94,36.67-69.1,36.67-110.28s-13.02-80.34-36.67-110.28Zm-100.98,178.04c-20.64,0-43.64-27.83-43.64-67.76s23-67.76,43.64-67.76,43.64,27.83,43.64,67.76-23,67.76-43.64,67.76Z"/>
  </g>
  <ellipse class="cls-2" cx="1872.7" cy="853.34" rx="41.62" ry="48.52"/>
  <path class="cls-2" d="m1471.55,411.98c-23.44,0-42.52-21.96-42.52-48.95s19.07-48.95,42.52-48.95,42.52,21.96,42.52,48.95-19.07,48.95-42.52,48.95Zm0-74.91c-10.58,0-19.52,11.89-19.52,25.95s8.94,25.95,19.52,25.95,19.52-11.89,19.52-25.95-8.94-25.95-19.52-25.95Z"/>
  <path class="cls-2" d="m1590.98,435.17c-23.44,0-42.52-21.96-42.52-48.95s19.07-48.95,42.52-48.95,42.52,21.96,42.52,48.95-19.07,48.95-42.52,48.95Zm0-74.91c-10.58,0-19.52,11.89-19.52,25.95s8.94,25.95,19.52,25.95,19.52-11.88,19.52-25.95-8.94-25.95-19.52-25.95Z"/>
  <path class="cls-2" d="m1716.64,471.11c-23.44,0-42.52-21.96-42.52-48.95s19.07-48.95,42.52-48.95,42.52,21.96,42.52,48.95-19.07,48.95-42.52,48.95Zm0-74.91c-10.58,0-19.52,11.89-19.52,25.95s8.94,25.95,19.52,25.95,19.52-11.89,19.52-25.95-8.94-25.95-19.52-25.95Z"/>
  <path class="cls-2" d="m1707.32,360.26c-23.44,0-42.52-21.96-42.52-48.95s19.07-48.95,42.52-48.95,42.52,21.96,42.52,48.95-19.07,48.95-42.52,48.95Zm0-74.91c-10.58,0-19.52,11.89-19.52,25.95s8.94,25.95,19.52,25.95,19.52-11.89,19.52-25.95-8.94-25.95-19.52-25.95Z"/>
  <path class="cls-2" d="m1524.43,597.17c-23.44,0-42.52-21.96-42.52-48.95s19.07-48.95,42.52-48.95,42.52,21.96,42.52,48.95-19.07,48.95-42.52,48.95Zm0-74.91c-10.58,0-19.52,11.88-19.52,25.95s8.94,25.95,19.52,25.95,19.52-11.88,19.52-25.95-8.94-25.95-19.52-25.95Z"/>
  <path class="cls-2" d="m1565.14,742.02c-23.44,0-42.52-21.96-42.52-48.95s19.07-48.95,42.52-48.95,42.52,21.96,42.52,48.95-19.07,48.95-42.52,48.95Zm0-74.91c-10.58,0-19.52,11.88-19.52,25.95s8.94,25.95,19.52,25.95,19.52-11.88,19.52-25.95-8.94-25.95-19.52-25.95Z"/>
  <path class="cls-2" d="m1600.53,840.93c-40.87,0-80.46-9.78-117.68-29.08-35.52-18.42-67.32-44.67-94.53-78.02-55.11-67.56-85.46-157.06-85.46-252.04s30.35-184.48,85.46-252.04c27.21-33.35,59.02-59.61,94.53-78.02,37.22-19.3,76.81-29.08,117.68-29.08s80.46,9.78,117.68,29.08c35.52,18.42,67.32,44.67,94.53,78.02,55.11,67.55,85.46,157.06,85.46,252.04s-30.35,184.48-85.46,252.04c-27.21,33.35-59.02,59.6-94.53,78.02-37.22,19.3-76.81,29.08-117.68,29.08Zm0-667.29c-136.01,0-246.67,138.23-246.67,308.14s110.66,308.14,246.67,308.14,246.67-138.23,246.67-308.14-110.66-308.14-246.67-308.14Z"/>
  <polygon class="cls-2" points="1587.86 734 1636.29 788.86 1652.14 784.57 1600.53 719.43 1587.86 734"/>
  <polygon class="cls-2" points="1546.29 589.46 1588.07 641.54 1649.14 641.54 1731.75 744.39 1746.21 732.5 1659.43 624.5 1598.04 626.75 1558.18 578.54 1546.29 589.46"/>
  <polygon class="cls-2" points="1494.11 404.32 1757.14 723.5 1769.36 709.36 1505.89 391.79 1494.11 404.32"/>
  <polygon class="cls-2" points="1613.14 427.57 1724.14 562.14 1724.14 638.43 1777.71 697.14 1787.57 683.86 1741.71 631.14 1740 552.71 1626.43 414.29 1613.14 427.57"/>
  <polygon class="cls-2" points="1739.14 463.14 1836.86 581 1842.43 557.64 1752 449 1739.14 463.14"/>
  <polygon class="cls-2" points="1743 337.14 1807.29 414.29 1807.29 629.86 1816.71 639.71 1806 655.62 1790.79 641.86 1790.79 422.16 1730.57 352.57 1743 337.14"/>
  <polygon class="cls-2" points="1838.19 826.19 1785.11 762.07 1799.25 748.89 1850.76 812.11 1838.19 826.19"/>
</svg>